<svg width="320" height="272" viewBox="0 0 320 272" fill="none" xmlns="http://www.w3.org/2000/svg">
<path d="M273.806 146.825H249.059C251.581 153.731 252.959 161.184 252.959 168.952V262.484C252.959 265.722 252.396 268.831 251.37 271.722H292.283C307.566 271.722 319.999 259.289 319.999 244.006V193.018C320 167.547 299.278 146.825 273.806 146.825ZM67.0406 168.953C67.0406 161.184 68.4188 153.732 70.9413 146.826H46.1938C20.7225 146.826 0 167.548 0 193.019V244.007C0 259.29 12.4331 271.724 27.7163 271.724H68.63C67.577 268.757 67.0395 265.632 67.0406 262.484V168.953ZM188.288 122.759H131.712C106.241 122.759 85.5181 143.482 85.5181 168.953V262.484C85.5181 267.586 89.6544 271.723 94.7569 271.723H225.243C230.346 271.723 234.482 267.587 234.482 262.484V168.953C234.482 143.482 213.759 122.759 188.288 122.759ZM160 0.274902C129.368 0.274902 104.446 25.1961 104.446 55.8293C104.446 76.6074 115.914 94.7543 132.851 104.282C140.884 108.801 150.145 111.383 160 111.383C169.855 111.383 179.116 108.801 187.149 104.282C204.086 94.7543 215.554 76.6068 215.554 55.8293C215.554 25.1968 190.633 0.274902 160 0.274902ZM62.4488 52.0555C39.5394 52.0555 20.9019 70.693 20.9019 93.6024C20.9019 116.512 39.5394 135.149 62.4488 135.149C68.0785 135.154 73.6498 134.008 78.8206 131.782C87.5119 128.04 94.6781 121.416 99.1125 113.119C102.325 107.116 104.002 100.411 103.996 93.6024C103.996 70.6936 85.3581 52.0555 62.4488 52.0555ZM257.551 52.0555C234.642 52.0555 216.004 70.693 216.004 93.6024C215.998 100.411 217.675 107.116 220.888 113.119C225.322 121.417 232.488 128.041 241.179 131.782C246.35 134.008 251.922 135.154 257.551 135.149C280.461 135.149 299.098 116.512 299.098 93.6024C299.098 70.693 280.461 52.0555 257.551 52.0555Z" fill="#4444E3"/>
</svg>
