<svg width="281" height="274" viewBox="0 0 281 274" fill="none" xmlns="http://www.w3.org/2000/svg">
<path d="M67.2649 132.029C47.364 132.029 31.178 125.931 18.7068 113.736C6.2356 101.275 0 85.6333 0 66.8099C0 47.7213 6.2356 31.8142 18.7068 19.0885C31.178 6.36285 47.364 0 67.2649 0C87.4311 0 103.75 6.36285 116.221 19.0885C128.692 31.8142 134.928 47.7213 134.928 66.8099C134.928 85.6333 128.692 101.275 116.221 113.736C103.75 125.931 87.4311 132.029 67.2649 132.029ZM71.245 269.228H41.3938L210.949 3.97677H241.198L71.245 269.228ZM261.895 255.309C249.424 267.77 233.238 274 213.337 274C193.436 274 177.25 267.77 164.779 255.309C152.308 242.849 146.072 227.207 146.072 208.383C146.072 189.295 152.308 173.388 164.779 160.662C177.25 147.936 193.436 141.573 213.337 141.573C233.238 141.573 249.424 147.936 261.895 160.662C274.632 173.388 281 189.295 281 208.383C281 227.207 274.632 242.849 261.895 255.309ZM67.2649 101.01C76.5519 101.01 84.1143 97.9613 89.9518 91.8636C95.7894 85.5007 98.7082 77.1495 98.7082 66.8099C98.7082 55.94 95.7894 47.3237 89.9518 40.9608C84.1143 34.598 76.5519 31.4165 67.2649 31.4165C57.9778 31.4165 50.4155 34.598 44.5779 40.9608C38.7403 47.3237 35.8215 55.94 35.8215 66.8099C35.8215 76.8844 38.7403 85.103 44.5779 91.4659C50.6808 97.8287 58.2431 101.01 67.2649 101.01ZM190.65 233.835C196.488 239.932 204.05 242.981 213.337 242.981C222.624 242.981 230.186 239.932 236.024 233.835C242.127 227.472 245.178 218.988 245.178 208.383C245.178 197.513 242.127 188.897 236.024 182.534C230.186 176.171 222.624 172.99 213.337 172.99C204.05 172.99 196.488 176.171 190.65 182.534C184.813 188.897 181.894 197.513 181.894 208.383C181.894 218.988 184.813 227.472 190.65 233.835Z" fill="#E24167"/>
</svg>
