<?xml version="1.0" standalone="no"?>
<!DOCTYPE svg PUBLIC "-//W3C//DTD SVG 20010904//EN"
 "http://www.w3.org/TR/2001/REC-SVG-20010904/DTD/svg10.dtd">
<svg version="1.0" xmlns="http://www.w3.org/2000/svg"
 width="700.000000pt" height="700.000000pt" viewBox="0 0 700.000000 700.000000"
 preserveAspectRatio="xMidYMid meet">
<metadata>
Created by potrace 1.14, written by Peter Selinger 2001-2017
</metadata>
<g transform="translate(0.000000,700.000000) scale(0.100000,-0.100000)"
fill="#000000" stroke="none">
<path d="M2919 6566 c-2 -2 -39 -7 -81 -10 -213 -17 -377 -76 -529 -190 -92
-69 -160 -145 -219 -244 -60 -102 -83 -114 -182 -96 -85 14 -301 12 -373 -5
-283 -66 -460 -247 -549 -561 -26 -92 -30 -130 -30 -265 0 -115 3 -140 27
-212 54 -162 174 -302 345 -401 68 -39 82 -46 86 -41 2 2 6 43 10 90 4 47 11
101 17 120 5 19 12 50 15 69 3 19 12 47 20 62 8 15 14 32 14 38 0 25 84 177
136 246 164 218 427 373 774 457 58 14 122 28 143 31 53 8 96 15 147 22 91 12
435 12 535 -1 120 -16 193 -26 220 -31 11 -2 56 -11 100 -20 44 -8 91 -18 105
-20 226 -43 625 -185 865 -307 165 -84 417 -241 510 -318 11 -9 63 -52 115
-94 149 -122 384 -365 524 -540 69 -88 131 -165 136 -172 5 -6 48 -69 96 -140
199 -297 385 -636 546 -993 82 -183 90 -201 95 -197 1 2 5 43 8 91 21 338 21
723 -1 916 -3 25 -7 65 -10 90 -7 65 -22 152 -45 260 -144 683 -528 1271
-1059 1625 -228 151 -479 252 -711 284 -65 9 -255 7 -298 -3 -113 -26 -194
-68 -273 -142 -51 -48 -61 -54 -100 -54 -52 0 -73 16 -118 90 -204 334 -555
547 -920 559 -41 1 -77 4 -81 6 -3 3 -8 3 -10 1z"/>
<path d="M3485 5407 c92 -269 205 -760 231 -995 3 -26 7 -56 9 -67 2 -11 4
-32 4 -46 1 -23 11 -32 76 -63 232 -109 369 -266 436 -496 17 -57 36 -183 31
-202 -1 -3 31 -5 71 -4 40 2 99 -3 132 -11 268 -60 440 -276 514 -648 29 -142
36 -233 36 -450 0 -202 -4 -252 -36 -404 -27 -133 -26 -127 -50 -200 -155
-474 -475 -907 -951 -1289 -59 -47 -104 -89 -99 -92 11 -6 1959 -6 1964 1 1 2
14 20 28 39 137 188 339 656 435 1006 43 157 108 449 129 574 3 19 8 42 10 50
2 8 7 40 10 70 4 30 8 57 10 60 2 3 6 33 10 67 6 59 4 70 -35 165 -392 958
-752 1558 -1215 2024 -364 366 -710 588 -1205 771 -62 23 -283 90 -325 99 -11
2 -29 6 -40 9 -11 2 -51 11 -90 20 -38 8 -75 17 -82 19 -7 3 -10 0 -8 -7z"/>
<path d="M3292 4094 c-124 -27 -251 -103 -355 -213 -58 -61 -78 -64 -188 -25
-108 38 -168 53 -289 73 -68 11 -238 6 -300 -9 -210 -50 -348 -197 -411 -440
-100 -388 56 -632 459 -720 45 -10 82 -15 83 -12 0 4 3 30 5 57 13 133 74 305
142 395 112 149 271 247 477 294 69 15 227 16 300 1 219 -45 461 -177 635
-347 234 -228 372 -522 411 -878 10 -95 7 -409 -5 -428 -2 -4 -7 -32 -11 -62
-23 -180 -120 -508 -206 -698 -16 -34 -29 -65 -29 -68 0 -3 -34 -73 -76 -157
-68 -135 -72 -152 -28 -112 6 6 44 39 85 75 76 68 188 178 249 246 109 121
280 348 280 372 0 6 4 12 8 14 29 11 179 341 216 476 60 216 78 420 62 677
-10 147 -57 381 -85 420 -4 6 -14 26 -21 45 -21 55 -78 131 -129 173 -87 70
-207 90 -339 56 -86 -22 -124 -17 -156 22 -23 27 -24 35 -24 161 0 117 -3 143
-25 213 -37 112 -106 209 -199 278 -51 38 -170 93 -243 112 -80 22 -215 26
-293 9z"/>
<path d="M3626 2938 c-89 -299 -255 -619 -440 -843 -22 -27 -45 -56 -51 -63
-31 -39 -220 -226 -281 -277 -94 -79 -101 -85 -159 -125 -27 -19 -52 -38 -55
-41 -22 -25 -267 -166 -405 -234 -237 -116 -462 -201 -740 -279 -98 -28 -380
-94 -429 -101 -17 -2 -67 -11 -111 -19 -125 -24 -292 -47 -430 -61 -38 -4 -74
-11 -80 -15 -14 -11 -12 -430 3 -438 5 -4 681 -7 1502 -6 1277 0 1493 3 1501
15 137 209 321 554 402 754 42 101 94 249 102 285 2 8 8 27 13 41 10 25 54
228 68 314 14 84 12 398 -2 490 -40 244 -157 476 -321 638 l-59 58 -28 -93z"/>
</g>
</svg>
