<svg width="0" height="0" class="hidden">
  <symbol fill="none" xmlns="http://www.w3.org/2000/svg" viewBox="0 0 24 24" id="svg_first">
    <path d="M13.1946 14.3572C13.004 14.0823 12.7788 13.8331 12.5246 13.6157C12.0368 15.4632 11.0397 16.9954 9.55462 18.1767C7.65802 19.6855 4.94958 20.6234 1.5 20.9667V22.5H11.7981C12.9995 20.6611 13.6919 18.9777 13.8563 17.4937C13.9919 16.2706 13.7693 15.2153 13.1946 14.3572Z" fill="#1D54A1"></path>
    <path d="M16.5007 15.75C16.5007 14.2219 16.1856 13.2065 15.5894 12.8134C15.0492 12.4571 14.4047 12.7169 14.3984 12.7196C14.3356 12.7466 14.2666 12.7559 14.1989 12.7465C14.1312 12.7371 14.0674 12.7093 14.0143 12.6663C13.9612 12.6232 13.9209 12.5665 13.8977 12.5021C13.8745 12.4378 13.8694 12.3684 13.8828 12.3014C13.8947 12.2387 14.1645 10.7194 12.6113 10.0982C11.036 9.46825 10.089 10.6748 10.0495 10.7264C9.99819 10.7935 9.92582 10.8415 9.84399 10.8626C9.76216 10.8837 9.67562 10.8767 9.59826 10.8427C9.58349 10.8361 8.06048 10.1762 6.98325 10.7037C6.48712 10.9465 6.16199 11.4003 5.98949 12.0909C5.80926 12.8118 5.88065 13.3866 6.20165 13.7994C6.62399 14.3424 7.39354 14.5283 7.86014 14.592C7.8685 14.3022 7.91683 14.0149 8.00376 13.7383C8.21057 13.0942 8.73379 12.2709 10.0522 12.0072C10.1905 11.9804 10.331 11.9672 10.4719 11.9679C11.5301 11.9679 12.9471 12.6387 13.8185 13.9398C14.4848 14.9348 14.756 16.1923 14.6024 17.5765C14.4662 18.8061 14.0032 20.1489 13.2224 21.5836C13.56 21.3141 13.8822 21.0259 14.1875 20.7204C15.7226 19.1796 16.5007 17.5074 16.5007 15.75Z" fill="#1D54A1"></path>
    <path d="M11.9375 5.43555C12.2816 6.47205 12.6468 7.85238 12.7989 9.36738C12.8287 9.37844 12.8587 9.38978 12.8889 9.40183C14.0045 9.84813 14.417 10.6547 14.5665 11.2528C14.6183 11.4624 14.6475 11.6769 14.6534 11.8927C15.1234 11.826 15.6017 11.9305 16.001 12.1872C16.8295 12.7335 17.2496 13.9323 17.2496 15.75C17.2496 17.6916 16.3687 19.5987 14.7023 21.2652C14.2533 21.7125 13.7713 22.1253 13.2602 22.5H20.0657C20.432 21.9958 21.7226 19.9735 22.259 15.89C20.0851 10.3871 17.4636 6.49356 11.9375 5.43555Z" fill="#1D54A1"></path>
    <path d="M17.2185 3.31458C15.8896 2.8335 14.7193 2.94867 14.1639 3.61505C14.124 3.66289 14.0728 3.70005 14.015 3.72317C13.9572 3.74628 13.8945 3.75463 13.8326 3.74745C13.7707 3.74027 13.7116 3.7178 13.6606 3.68205C13.6096 3.64631 13.5683 3.59842 13.5405 3.54272C13.4985 3.46017 12.4776 1.5 10.1258 1.5C7.78205 1.5 7.1055 3.12286 7.09899 3.13927C7.06531 3.22346 7.00227 3.2926 6.92153 3.33388C6.84079 3.37516 6.74783 3.38579 6.65986 3.3638C6.18295 3.26597 5.69089 3.26856 5.21503 3.37139C4.25878 3.59236 3.6361 4.25498 3.3646 5.34094C3.0931 6.42689 3.33061 7.30458 4.07049 7.94963C4.30868 8.15359 4.57418 8.3233 4.8593 8.45386C4.88461 7.44211 5.22066 6.60159 5.86186 5.9497C7.45294 4.332 10.3478 4.48955 10.5216 4.50056C10.8256 4.51455 11.1288 4.54387 11.4299 4.58841H11.4303C14.3722 5.02327 16.7272 6.20091 18.6299 8.18892C20.0521 9.67486 21.2462 11.5967 22.4191 14.3099C22.473 13.5638 22.5008 12.7917 22.5008 12C22.5008 9.7853 21.905 7.76386 20.7778 6.15427C19.8396 4.81434 18.5755 3.80587 17.2185 3.31458Z" fill="#1D54A1"></path>
  </symbol>
</svg>