<svg width="0" height="0" class="hidden">
  <symbol fill="none" xmlns="http://www.w3.org/2000/svg" viewBox="0 0 24 24" id="svg_first">
    <path d="M13.1946 14.3572C13.004 14.0823 12.7788 13.8331 12.5246 13.6157C12.0368 15.4632 11.0397 16.9954 9.55462 18.1767C7.65802 19.6855 4.94958 20.6234 1.5 20.9667V22.5H11.7981C12.9995 20.6611 13.6919 18.9777 13.8563 17.4937C13.9919 16.2706 13.7693 15.2153 13.1946 14.3572Z" fill="#1D54A1"></path>
    <path d="M16.5007 15.75C16.5007 14.2219 16.1856 13.2065 15.5894 12.8134C15.0492 12.4571 14.4047 12.7169 14.3984 12.7196C14.3356 12.7466 14.2666 12.7559 14.1989 12.7465C14.1312 12.7371 14.0674 12.7093 14.0143 12.6663C13.9612 12.6232 13.9209 12.5665 13.8977 12.5021C13.8745 12.4378 13.8694 12.3684 13.8828 12.3014C13.8947 12.2387 14.1645 10.7194 12.6113 10.0982C11.036 9.46825 10.089 10.6748 10.0495 10.7264C9.99819 10.7935 9.92582 10.8415 9.84399 10.8626C9.76216 10.8837 9.67562 10.8767 9.59826 10.8427C9.58349 10.8361 8.06048 10.1762 6.98325 10.7037C6.48712 10.9465 6.16199 11.4003 5.98949 12.0909C5.80926 12.8118 5.88065 13.3866 6.20165 13.7994C6.62399 14.3424 7.39354 14.5283 7.86014 14.592C7.8685 14.3022 7.91683 14.0149 8.00376 13.7383C8.21057 13.0942 8.73379 12.2709 10.0522 12.0072C10.1905 11.9804 10.331 11.9672 10.4719 11.9679C11.5301 11.9679 12.9471 12.6387 13.8185 13.9398C14.4848 14.9348 14.756 16.1923 14.6024 17.5765C14.4662 18.8061 14.0032 20.1489 13.2224 21.5836C13.56 21.3141 13.8822 21.0259 14.1875 20.7204C15.7226 19.1796 16.5007 17.5074 16.5007 15.75Z" fill="#1D54A1"></path>
    <path d="M11.9375 5.43555C12.2816 6.47205 12.6468 7.85238 12.7989 9.36738C12.8287 9.37844 12.8587 9.38978 12.8889 9.40183C14.0045 9.84813 14.417 10.6547 14.5665 11.2528C14.6183 11.4624 14.6475 11.6769 14.6534 11.8927C15.1234 11.826 15.6017 11.9305 16.001 12.1872C16.8295 12.7335 17.2496 13.9323 17.2496 15.75C17.2496 17.6916 16.3687 19.5987 14.7023 21.2652C14.2533 21.7125 13.7713 22.1253 13.2602 22.5H20.0657C20.432 21.9958 21.7226 19.9735 22.259 15.89C20.0851 10.3871 17.4636 6.49356 11.9375 5.43555Z" fill="#1D54A1"></path>
    <path d="M17.2185 3.31458C15.8896 2.8335 14.7193 2.94867 14.1639 3.61505C14.124 3.66289 14.0728 3.70005 14.015 3.72317C13.9572 3.74628 13.8945 3.75463 13.8326 3.74745C13.7707 3.74027 13.7116 3.7178 13.6606 3.68205C13.6096 3.64631 13.5683 3.59842 13.5405 3.54272C13.4985 3.46017 12.4776 1.5 10.1258 1.5C7.78205 1.5 7.1055 3.12286 7.09899 3.13927C7.06531 3.22346 7.00227 3.2926 6.92153 3.33388C6.84079 3.37516 6.74783 3.38579 6.65986 3.3638C6.18295 3.26597 5.69089 3.26856 5.21503 3.37139C4.25878 3.59236 3.6361 4.25498 3.3646 5.34094C3.0931 6.42689 3.33061 7.30458 4.07049 7.94963C4.30868 8.15359 4.57418 8.3233 4.8593 8.45386C4.88461 7.44211 5.22066 6.60159 5.86186 5.9497C7.45294 4.332 10.3478 4.48955 10.5216 4.50056C10.8256 4.51455 11.1288 4.54387 11.4299 4.58841H11.4303C14.3722 5.02327 16.7272 6.20091 18.6299 8.18892C20.0521 9.67486 21.2462 11.5967 22.4191 14.3099C22.473 13.5638 22.5008 12.7917 22.5008 12C22.5008 9.7853 21.905 7.76386 20.7778 6.15427C19.8396 4.81434 18.5755 3.80587 17.2185 3.31458Z" fill="#1D54A1"></path>
  </symbol>


  <symbol fill="none" xmlns="http://www.w3.org/2000/svg" viewBox="0 0 12 12" id="svg_tag_sale">
    <g clip-path="url(#clip0_1_2562)">
      <path d="M2.47855 5.75014C3.05147 5.74969 3.60651 5.55061 4.04911 5.18682C4.49172 4.82304 4.7945 4.31705 4.90589 3.75506C5.01727 3.19308 4.93037 2.60985 4.65998 2.10475C4.38959 1.59965 3.95244 1.20392 3.423 0.984979C2.89357 0.766036 2.3046 0.737424 1.75644 0.904017C1.20827 1.07061 0.734824 1.4221 0.416746 1.89862C0.098669 2.37513 -0.0443593 2.94718 0.0120279 3.51732C0.0684151 4.08746 0.32073 4.62041 0.725987 5.02539C0.955995 5.25564 1.22922 5.4382 1.52998 5.56258C1.83073 5.68695 2.15309 5.75069 2.47855 5.75014ZM1.78663 2.58088C1.94671 2.42081 2.15733 2.3212 2.38262 2.29902C2.60791 2.27684 2.83392 2.33345 3.02214 2.45923C3.21037 2.585 3.34916 2.77215 3.41487 2.98878C3.48058 3.20541 3.46914 3.43812 3.38251 3.64727C3.29587 3.85641 3.1394 4.02905 2.93975 4.13576C2.7401 4.24247 2.50963 4.27666 2.2876 4.23249C2.06557 4.18832 1.86573 4.06854 1.72212 3.89355C1.5785 3.71855 1.50001 3.49918 1.50001 3.2728C1.49966 3.14425 1.52481 3.0169 1.574 2.89813C1.6232 2.77936 1.69547 2.67153 1.78663 2.58088ZM9.52149 6.24871C8.94806 6.2487 8.39237 6.44752 7.9491 6.81129C7.50582 7.17506 7.2024 7.68128 7.09052 8.24369C6.97864 8.8061 7.06523 9.38991 7.33554 9.89563C7.60585 10.4014 8.04315 10.7977 8.57292 11.0172C9.1027 11.2366 9.69218 11.2656 10.2409 11.0991C10.7897 10.9327 11.2637 10.5811 11.5823 10.1043C11.9009 9.62751 12.0443 9.055 11.9881 8.48433C11.9319 7.91366 11.6795 7.38014 11.2741 6.97466C11.0444 6.74378 10.7713 6.56074 10.4705 6.43613C10.1697 6.31152 9.84711 6.24781 9.52149 6.24871ZM10.2134 9.41914C10.0297 9.60151 9.78113 9.70364 9.52224 9.70315C9.26336 9.70267 9.01522 9.59961 8.83217 9.41655C8.64911 9.23349 8.54605 8.98536 8.54557 8.72647C8.54508 8.46759 8.6472 8.21907 8.82957 8.03532C8.92031 7.9439 9.02821 7.8713 9.14708 7.82167C9.26594 7.77204 9.39344 7.74637 9.52225 7.74613C9.65106 7.74589 9.77865 7.77109 9.8977 7.82027C10.0167 7.86946 10.1249 7.94166 10.216 8.03275C10.3071 8.12383 10.3793 8.232 10.4285 8.35105C10.4776 8.4701 10.5028 8.59769 10.5026 8.7265C10.5023 8.85531 10.4767 8.98281 10.427 9.10167C10.3774 9.22053 10.3048 9.32843 10.2134 9.41917L10.2134 9.41914ZM10.9861 1.01394C11.0557 1.08359 11.111 1.16626 11.1487 1.25726C11.1864 1.34825 11.2058 1.44578 11.2058 1.54427C11.2058 1.64277 11.1864 1.74029 11.1487 1.83129C11.111 1.92228 11.0557 2.00496 10.9861 2.07461L2.07463 10.9861C1.93379 11.1258 1.74331 11.2041 1.5449 11.2037C1.34648 11.2033 1.15631 11.1243 1.01601 10.984C0.875711 10.8437 0.796725 10.6536 0.796346 10.4551C0.795967 10.2567 0.874226 10.0663 1.01399 9.92542L9.92544 1.01394C10.0661 0.873295 10.2569 0.794281 10.4558 0.794281C10.6547 0.794281 10.8454 0.873295 10.9861 1.01394Z" fill="white"></path>
    </g>
    <defs>
      <clipPath id="clip0_1_2562">
        <rect width="12" height="12" fill="white"></rect>
      </clipPath>
    </defs>
  </symbol>
  <symbol fill="none" xmlns="http://www.w3.org/2000/svg" viewBox="0 0 12 12" id="svg_tag_fire">
    <path d="M9.26625 3.85876C9.22413 3.81659 9.17256 3.78507 9.11582 3.76681C9.05908 3.74855 8.99881 3.74408 8.94 3.75376C8.88163 3.76352 8.82639 3.78695 8.77882 3.82215C8.73124 3.85734 8.69266 3.9033 8.66625 3.95626C8.55155 4.15472 8.41164 4.33749 8.25 4.50001C8.21192 3.51414 7.8509 2.56811 7.2225 1.80751C6.87093 1.44652 6.4459 1.16529 5.9762 0.982837C5.50649 0.800388 5.00306 0.720988 4.5 0.750011C4.43216 0.750192 4.36564 0.768772 4.30753 0.803772C4.24941 0.838772 4.20188 0.888881 4.17 0.948761C4.13989 1.0074 4.12577 1.07294 4.12906 1.13878C4.13235 1.20461 4.15294 1.26842 4.18875 1.32376C4.24125 1.40251 5.38125 3.15751 4.08 4.73626C3.75 4.47751 3.375 4.06876 3.375 3.75001C3.3745 3.66604 3.34584 3.58467 3.29359 3.51893C3.24135 3.45318 3.16855 3.40688 3.08686 3.38743C3.00518 3.36798 2.91932 3.37651 2.84306 3.41166C2.7668 3.4468 2.70454 3.50652 2.66625 3.58126C2.15403 4.69298 1.8843 5.901 1.875 7.12501C1.875 10.3575 4.27875 11.1975 4.38 11.25C4.45268 11.2747 4.53118 11.2765 4.60491 11.2552C4.67864 11.2338 4.74405 11.1904 4.79229 11.1307C4.84054 11.071 4.86931 10.9979 4.87471 10.9213C4.88011 10.8448 4.86189 10.7684 4.8225 10.7025C4.46675 10.0637 4.32607 9.32744 4.42125 8.60251C4.65225 9.05048 4.99606 9.43048 5.41875 9.70501C5.49827 9.75774 5.5949 9.77817 5.68896 9.76214C5.78301 9.74612 5.86742 9.69484 5.925 9.61876C6.44356 8.86002 6.68946 7.94784 6.6225 7.03126C7.01625 7.63501 7.31625 8.76376 6.765 10.7813C6.75076 10.8364 6.74927 10.8941 6.76065 10.9499C6.77203 11.0058 6.79598 11.0583 6.83068 11.1034C6.86538 11.1486 6.90992 11.1853 6.96092 11.2107C7.01192 11.2361 7.06803 11.2495 7.125 11.25C7.15853 11.2555 7.19272 11.2555 7.22625 11.25C8.08651 10.962 8.83199 10.4062 9.35359 9.66393C9.87519 8.92169 10.1455 8.03197 10.125 7.12501C10.125 4.78876 9.3525 3.94876 9.26625 3.85876Z" fill="white"></path>
  </symbol>

  <symbol fill="none" xmlns="http://www.w3.org/2000/svg" viewBox="0 0 19 18" id="svg_cart">
    <path d="M2.75 1.5C2.33579 1.5 2 1.83579 2 2.25C2 2.66421 2.33579 3 2.75 3L2.75 1.5ZM4.625 2.25L5.35261 2.0681C5.26914 1.73422 4.96915 1.5 4.625 1.5L4.625 2.25ZM14.75 12.75C15.1642 12.75 15.5 12.4142 15.5 12C15.5 11.5858 15.1642 11.25 14.75 11.25V12.75ZM16.25 3.75L16.9776 3.9319C17.0336 3.70785 16.9833 3.47048 16.8412 3.28844C16.699 3.1064 16.481 3 16.25 3V3.75ZM14.75 9.75V10.5C15.0942 10.5 15.3941 10.2658 15.4776 9.9319L14.75 9.75ZM2.75 3L4.625 3L4.625 1.5L2.75 1.5L2.75 3ZM3.89739 2.4319L4.27239 3.9319L5.72761 3.5681L5.35261 2.0681L3.89739 2.4319ZM4.27239 3.9319L5.77239 9.9319L7.22761 9.5681L5.72761 3.5681L4.27239 3.9319ZM6.5 9H6.125V10.5H6.5V9ZM6.125 12.75H14.75V11.25H6.125V12.75ZM4.25 10.875C4.25 11.9105 5.08947 12.75 6.125 12.75V11.25C5.91789 11.25 5.75 11.0821 5.75 10.875H4.25ZM6.125 9C5.08947 9 4.25 9.83947 4.25 10.875H5.75C5.75 10.6679 5.91789 10.5 6.125 10.5V9ZM5 4.5H16.25V3H5V4.5ZM15.5224 3.5681L14.0224 9.5681L15.4776 9.9319L16.9776 3.9319L15.5224 3.5681ZM14.75 9H6.5V10.5H14.75V9ZM14 15V16.5C14.8284 16.5 15.5 15.8284 15.5 15H14ZM14 15H12.5C12.5 15.8284 13.1716 16.5 14 16.5V15ZM14 15V13.5C13.1716 13.5 12.5 14.1716 12.5 15H14ZM14 15H15.5C15.5 14.1716 14.8284 13.5 14 13.5V15ZM6.5 15V16.5C7.32843 16.5 8 15.8284 8 15H6.5ZM6.5 15H5C5 15.8284 5.67157 16.5 6.5 16.5V15ZM6.5 15V13.5C5.67157 13.5 5 14.1716 5 15H6.5ZM6.5 15H8C8 14.1716 7.32843 13.5 6.5 13.5V15Z" fill="white"></path>
  </symbol>

  <symbol fill="none" xmlns="http://www.w3.org/2000/svg" viewBox="0 0 10 14" id="svg_arrow_top">
    <path d="M1.67867 0.26299C1.4797 0.259301 1.28451 0.317544 1.1201 0.429662C0.955688 0.541779 0.83019 0.702226 0.760971 0.888801C0.691751 1.07537 0.682233 1.27885 0.733734 1.47107C0.785235 1.66329 0.895208 1.83475 1.04844 1.96173L6.91253 6.98189L1.04481 12.002C0.937615 12.0802 0.84778 12.1797 0.780977 12.2943C0.714174 12.4089 0.671853 12.5361 0.656685 12.6679C0.641518 12.7997 0.653833 12.9332 0.692853 13.06C0.731873 13.1868 0.796752 13.3041 0.883394 13.4046C0.970036 13.505 1.07656 13.5864 1.19624 13.6436C1.31593 13.7009 1.44617 13.7326 1.57876 13.737C1.71135 13.7413 1.84339 13.7182 1.96657 13.6689C2.08975 13.6197 2.20138 13.5454 2.29442 13.4509L9.00245 7.71716C9.10795 7.62705 9.19265 7.51515 9.25073 7.38915C9.30882 7.26315 9.33889 7.12606 9.33889 6.98732C9.33889 6.84858 9.30882 6.71149 9.25073 6.58549C9.19265 6.4595 9.10795 6.34759 9.00245 6.25748L2.29442 0.505667C2.12443 0.354332 1.9062 0.268323 1.67867 0.26299Z" fill="currentColor"></path>
  </symbol>
  <symbol fill="none" xmlns="http://www.w3.org/2000/svg" viewBox="0 0 26 26" id="svg_arrow">
    <rect width="26" height="26" rx="13" fill="#1d54a1"></rect>
    <path d="M10.9782 8.89927C10.8571 8.89702 10.7383 8.93248 10.6382 9.00072C10.5381 9.06897 10.4617 9.16663 10.4196 9.2802C10.3775 9.39377 10.3717 9.51762 10.403 9.63462C10.4344 9.75163 10.5013 9.856 10.5946 9.93329L14.164 12.989L10.5924 16.0448C10.5271 16.0923 10.4724 16.1529 10.4318 16.2227C10.3911 16.2924 10.3654 16.3699 10.3561 16.4501C10.3469 16.5303 10.3544 16.6116 10.3781 16.6888C10.4019 16.7659 10.4414 16.8373 10.4941 16.8985C10.5469 16.9596 10.6117 17.0092 10.6846 17.044C10.7574 17.0788 10.8367 17.0982 10.9174 17.1008C10.9981 17.1035 11.0785 17.0894 11.1534 17.0594C11.2284 17.0294 11.2964 16.9842 11.353 16.9267L15.4362 13.4366C15.5004 13.3817 15.5519 13.3136 15.5873 13.2369C15.6226 13.1602 15.6409 13.0768 15.6409 12.9923C15.6409 12.9079 15.6226 12.8244 15.5873 12.7478C15.5519 12.6711 15.5004 12.6029 15.4362 12.5481L11.353 9.04699C11.2495 8.95487 11.1167 8.90252 10.9782 8.89927Z" fill="#fff"></path>
  </symbol>
  <symbol fill="none" xmlns="http://www.w3.org/2000/svg" viewBox="0 0 28 28" id="svg_top">
    <circle cx="14" cy="14" r="13.5" stroke="currentColor"></circle>
    <path d="M9.89927 16.0218C9.89702 16.1429 9.93248 16.2617 10.0007 16.3618C10.069 16.4619 10.1666 16.5383 10.2802 16.5804C10.3938 16.6225 10.5176 16.6283 10.6346 16.597C10.7516 16.5656 10.856 16.4987 10.9333 16.4054L13.989 12.836L17.0448 16.4076C17.0923 16.4729 17.1529 16.5276 17.2227 16.5682C17.2924 16.6089 17.3699 16.6346 17.4501 16.6439C17.5303 16.6531 17.6116 16.6456 17.6888 16.6219C17.7659 16.5981 17.8373 16.5586 17.8985 16.5059C17.9596 16.4531 18.0092 16.3883 18.044 16.3154C18.0788 16.2426 18.0982 16.1633 18.1008 16.0826C18.1035 16.0019 18.0894 15.9215 18.0594 15.8466C18.0294 15.7716 17.9842 15.7036 17.9267 15.647L14.4366 11.5638C14.3817 11.4996 14.3136 11.4481 14.2369 11.4127C14.1602 11.3774 14.0768 11.3591 13.9923 11.3591C13.9079 11.3591 13.8244 11.3774 13.7478 11.4127C13.6711 11.4481 13.6029 11.4996 13.5481 11.5638L10.047 15.647C9.95487 15.7505 9.90252 15.8833 9.89927 16.0218Z" fill="currentColor"></path>
  </symbol>
    <symbol fill="none" xmlns="http://www.w3.org/2000/svg" viewBox="0 0 24 24" id="svg_social_fb">
    <path d="M0 12C0 18.6274 5.37258 24 12 24C18.6274 24 24 18.6274 24 12C24 5.37258 18.6274 0 12 0C5.37258 0 0 5.37258 0 12Z" fill="#1877F2"></path>
    <path d="M18 12C18 8.7 15.3 6 12 6C8.7 6 6 8.7 6 12C6 15 8.175 17.475 11.025 17.925V13.725H9.525V12H11.025V10.65C11.025 9.15 11.925 8.325 13.275 8.325C13.95 8.325 14.625 8.475 14.625 8.475V9.975H13.875C13.125 9.975 12.9 10.425 12.9 10.875V12H14.55L14.25 13.725H12.825V18C15.825 17.55 18 15 18 12Z" fill="white"></path>
  </symbol>
  <symbol fill="none" xmlns="http://www.w3.org/2000/svg" viewBox="0 0 24 24" id="svg_social_tg">
    <path d="M0 12C0 18.6274 5.37258 24 12 24C18.6274 24 24 18.6274 24 12C24 5.37258 18.6274 0 12 0C5.37258 0 0 5.37258 0 12Z" fill="#0088CC"></path>
    <path d="M6.07494 11.7812C9.29616 10.3778 11.4441 9.45256 12.5189 9.00553C15.5875 7.72919 16.2251 7.50747 16.6407 7.50007C16.7322 7.49854 16.9365 7.52119 17.0689 7.62862C17.1807 7.71932 17.2115 7.84186 17.2262 7.92786C17.2409 8.01386 17.2592 8.20977 17.2447 8.36285C17.0784 10.1101 16.3588 14.3501 15.9928 16.307C15.8379 17.1351 15.5329 17.4127 15.2376 17.4399C14.596 17.4989 14.1087 17.0158 13.4872 16.6084C12.5147 15.9709 11.9653 15.5741 11.0213 14.952C9.93032 14.2331 10.6375 13.8379 11.2593 13.1922C11.422 13.0232 14.2492 10.4516 14.3039 10.2183C14.3108 10.1891 14.3171 10.0804 14.2525 10.023C14.1879 9.96553 14.0926 9.98516 14.0238 10.0008C13.9262 10.0229 12.3726 11.0498 9.36292 13.0814C8.92193 13.3842 8.5225 13.5318 8.16462 13.524C7.77009 13.5155 7.01117 13.301 6.44699 13.1176C5.755 12.8926 5.20502 12.7737 5.25291 12.3917C5.27785 12.1927 5.55186 11.9892 6.07494 11.7812Z" fill="white"></path>
  </symbol>
  <symbol fill="none" xmlns="http://www.w3.org/2000/svg" viewBox="0 0 24 24" id="svg_social_tw">
    <path d="M0 12C0 18.6274 5.37258 24 12 24C18.6274 24 24 18.6274 24 12C24 5.37258 18.6274 0 12 0C5.37258 0 0 5.37258 0 12Z" fill="#1DA1F2"></path>
    <path d="M18 8.25C17.55 8.475 17.1 8.55 16.575 8.625C17.1 8.325 17.475 7.875 17.625 7.275C17.175 7.575 16.65 7.725 16.05 7.875C15.6 7.425 14.925 7.125 14.25 7.125C12.675 7.125 11.475 8.625 11.85 10.125C9.825 10.05 8.025 9.075 6.75 7.575C6.075 8.7 6.45 10.125 7.5 10.875C7.125 10.875 6.75 10.725 6.375 10.575C6.375 11.7 7.2 12.75 8.325 13.05C7.95 13.125 7.575 13.2 7.2 13.125C7.5 14.1 8.4 14.85 9.525 14.85C8.625 15.525 7.275 15.9 6 15.75C7.125 16.425 8.4 16.875 9.75 16.875C14.325 16.875 16.875 13.05 16.725 9.525C17.25 9.225 17.7 8.775 18 8.25Z" fill="white"></path>
  </symbol>
  <symbol fill="none" xmlns="http://www.w3.org/2000/svg" viewBox="0 0 24 24" id="svg_social_wp">
    <path d="M0 12C0 18.6274 5.37258 24 12 24C18.6274 24 24 18.6274 24 12C24 5.37258 18.6274 0 12 0C5.37258 0 0 5.37258 0 12Z" fill="#25D366"></path>
    <path fill-rule="evenodd" clip-rule="evenodd" d="M16.2 7.725C15.075 6.6 13.575 6 12 6C8.7 6 6 8.7 6 12C6 13.05 6.3 14.1 6.825 15L6 18L9.15001 17.175C10.05 17.625 11.025 17.925 12 17.925C15.3 17.925 18 15.225 18 11.925C18 10.35 17.325 8.85 16.2 7.725ZM12 16.95C11.1 16.95 10.2 16.725 9.45 16.275L9.3 16.2L7.425 16.725L7.95 14.925L7.8 14.7C7.275 13.875 7.05 12.975 7.05 12.075C7.05 9.375 9.3 7.125 12 7.125C13.35 7.125 14.55 7.65 15.525 8.55C16.5 9.525 16.95 10.725 16.95 12.075C16.95 14.7 14.775 16.95 12 16.95ZM14.7 13.2C14.55 13.125 13.8 12.75 13.65 12.75C13.5 12.675 13.425 12.675 13.35 12.825C13.275 12.975 12.975 13.275 12.9 13.425C12.825 13.5 12.75 13.5 12.6 13.5C12.45 13.425 12 13.275 11.4 12.75C10.95 12.375 10.65 11.85 10.575 11.7C10.5 11.55 10.575 11.475 10.65 11.4C10.725 11.325 10.8 11.25 10.875 11.175C10.95 11.1 10.95 11.025 11.025 10.95C11.1 10.875 11.025 10.8 11.025 10.725C11.025 10.65 10.725 9.9 10.575 9.6C10.5 9.375 10.35 9.375 10.275 9.375C10.2 9.375 10.125 9.375 9.97499 9.375C9.89999 9.375 9.74999 9.375 9.59999 9.525C9.44999 9.675 9.075 10.05 9.075 10.8C9.075 11.55 9.6 12.225 9.675 12.375C9.75 12.45 10.725 14.025 12.225 14.625C13.5 15.15 13.725 15 14.025 15C14.325 15 14.925 14.625 15 14.325C15.15 13.95 15.15 13.65 15.075 13.65C15 13.275 14.85 13.275 14.7 13.2Z" fill="white"></path>
  </symbol>
  <symbol fill="none" xmlns="http://www.w3.org/2000/svg" viewBox="0 0 24 24" id="svg_social_you">
    <path d="M0 12C0 18.6274 5.37258 24 12 24C18.6274 24 24 18.6274 24 12C24 5.37258 18.6274 0 12 0C5.37258 0 0 5.37258 0 12Z" fill="#FF0000"></path>
    <path d="M17.7 9.07505C17.55 8.55005 17.175 8.17505 16.65 8.02505C15.75 7.80005 11.925 7.80005 11.925 7.80005C11.925 7.80005 8.175 7.80005 7.2 8.02505C6.675 8.17505 6.3 8.55005 6.15 9.07505C6 10.05 6 12 6 12C6 12 6 13.95 6.225 14.925C6.375 15.45 6.75 15.825 7.275 15.975C8.175 16.2 12 16.2 12 16.2C12 16.2 15.75 16.2 16.725 15.975C17.25 15.825 17.625 15.45 17.775 14.925C18 13.95 18 12 18 12C18 12 18 10.05 17.7 9.07505ZM10.8 13.8V10.2L13.95 12L10.8 13.8Z" fill="white"></path>
  </symbol>
  

  <symbol fill="none" xmlns="http://www.w3.org/2000/svg" viewBox="0 0 8 6" id="svg_nav">
    <path d="M7.61408 0.808105H0.385883C0.0438349 0.808105 -0.130416 1.22115 0.114826 1.46639L3.72892 5.08049C3.87736 5.22892 4.1226 5.22892 4.2711 5.08049L7.8852 1.46639C8.13038 1.22115 7.95613 0.808105 7.61408 0.808105Z" fill="currentColor"></path>
  </symbol>

  <symbol fill="none" xmlns="http://www.w3.org/2000/svg" viewBox="0 0 32 32" id="cart_svg">
    <path d="M4 3.25C3.58579 3.25 3.25 3.58579 3.25 4C3.25 4.41421 3.58579 4.75 4 4.75L4 3.25ZM7.33333 4L8.06094 3.8181C7.97747 3.48422 7.67748 3.25 7.33333 3.25L7.33333 4ZM25.3333 22.0833C25.7475 22.0833 26.0833 21.7475 26.0833 21.3333C26.0833 20.9191 25.7475 20.5833 25.3333 20.5833V22.0833ZM28 6.66667L28.7276 6.84857C28.7836 6.62451 28.7333 6.38714 28.5912 6.20511C28.449 6.02307 28.231 5.91667 28 5.91667V6.66667ZM25.3333 17.3333V18.0833C25.6775 18.0833 25.9775 17.8491 26.0609 17.5152L25.3333 17.3333ZM4 4.75L7.33333 4.75L7.33333 3.25L4 3.25L4 4.75ZM6.60573 4.1819L7.27239 6.84857L8.72761 6.48477L8.06094 3.8181L6.60573 4.1819ZM7.27239 6.84857L9.93906 17.5152L11.3943 17.1514L8.72761 6.48477L7.27239 6.84857ZM10.6667 16.5833H10V18.0833H10.6667V16.5833ZM10 22.0833H25.3333V20.5833H10V22.0833ZM7.25 19.3333C7.25 20.8521 8.48122 22.0833 10 22.0833V20.5833C9.30964 20.5833 8.75 20.0237 8.75 19.3333H7.25ZM10 16.5833C8.48122 16.5833 7.25 17.8146 7.25 19.3333H8.75C8.75 18.643 9.30964 18.0833 10 18.0833V16.5833ZM8 7.41667H28V5.91667H8V7.41667ZM27.2724 6.48477L24.6057 17.1514L26.0609 17.5152L28.7276 6.84857L27.2724 6.48477ZM25.3333 16.5833H10.6667V18.0833H25.3333V16.5833ZM24.5833 26.6667C24.5833 26.9888 24.3222 27.25 24 27.25V28.75C25.1506 28.75 26.0833 27.8173 26.0833 26.6667H24.5833ZM24 27.25C23.6778 27.25 23.4167 26.9888 23.4167 26.6667H21.9167C21.9167 27.8173 22.8494 28.75 24 28.75V27.25ZM23.4167 26.6667C23.4167 26.3445 23.6778 26.0833 24 26.0833V24.5833C22.8494 24.5833 21.9167 25.5161 21.9167 26.6667H23.4167ZM24 26.0833C24.3222 26.0833 24.5833 26.3445 24.5833 26.6667H26.0833C26.0833 25.5161 25.1506 24.5833 24 24.5833V26.0833ZM11.25 26.6667C11.25 26.9888 10.9888 27.25 10.6667 27.25V28.75C11.8173 28.75 12.75 27.8173 12.75 26.6667H11.25ZM10.6667 27.25C10.3445 27.25 10.0833 26.9888 10.0833 26.6667H8.58333C8.58333 27.8173 9.51607 28.75 10.6667 28.75V27.25ZM10.0833 26.6667C10.0833 26.3445 10.3445 26.0833 10.6667 26.0833V24.5833C9.51607 24.5833 8.58333 25.5161 8.58333 26.6667H10.0833ZM10.6667 26.0833C10.9888 26.0833 11.25 26.3445 11.25 26.6667H12.75C12.75 25.5161 11.8173 24.5833 10.6667 24.5833V26.0833Z" fill="#1D54A1"></path>
  </symbol>

  <symbol fill="none" xmlns="http://www.w3.org/2000/svg" viewBox="0 0 24 24" id="search_svg">
    <path d="M15.5303 14.4697C15.2374 14.1768 14.7626 14.1768 14.4697 14.4697C14.1768 14.7626 14.1768 15.2374 14.4697 15.5303L15.5303 14.4697ZM20.4697 21.5303C20.7626 21.8232 21.2374 21.8232 21.5303 21.5303C21.8232 21.2374 21.8232 20.7626 21.5303 20.4697L20.4697 21.5303ZM10 16.25C6.54822 16.25 3.75 13.4518 3.75 10H2.25C2.25 14.2802 5.71979 17.75 10 17.75V16.25ZM16.25 10C16.25 13.4518 13.4518 16.25 10 16.25V17.75C14.2802 17.75 17.75 14.2802 17.75 10H16.25ZM10 3.75C13.4518 3.75 16.25 6.54822 16.25 10H17.75C17.75 5.71979 14.2802 2.25 10 2.25V3.75ZM10 2.25C5.71979 2.25 2.25 5.71979 2.25 10H3.75C3.75 6.54822 6.54822 3.75 10 3.75V2.25ZM14.4697 15.5303L20.4697 21.5303L21.5303 20.4697L15.5303 14.4697L14.4697 15.5303Z" fill="#1E4F9B"></path>
  </symbol>

  <symbol fill="none" xmlns="http://www.w3.org/2000/svg" viewBox="0 0 18 18" id="svg_burger">
    <path d="M3 8.25C2.58579 8.25 2.25 8.58579 2.25 9C2.25 9.41421 2.58579 9.75 3 9.75V8.25ZM15 9.75C15.4142 9.75 15.75 9.41421 15.75 9C15.75 8.58579 15.4142 8.25 15 8.25V9.75ZM3 3.75C2.58579 3.75 2.25 4.08579 2.25 4.5C2.25 4.91421 2.58579 5.25 3 5.25V3.75ZM15 5.25C15.4142 5.25 15.75 4.91421 15.75 4.5C15.75 4.08579 15.4142 3.75 15 3.75V5.25ZM3 12.75C2.58579 12.75 2.25 13.0858 2.25 13.5C2.25 13.9142 2.58579 14.25 3 14.25V12.75ZM15 14.25C15.4142 14.25 15.75 13.9142 15.75 13.5C15.75 13.0858 15.4142 12.75 15 12.75V14.25ZM3 9.75H15V8.25H3V9.75ZM3 5.25H15V3.75H3V5.25ZM3 14.25H15V12.75H3V14.25Z" fill="currentColor"></path>
  </symbol>
  <symbol fill="none" xmlns="http://www.w3.org/2000/svg" viewBox="0 0 15 15" id="svg_close">
    <rect x="0.348389" y="13.4512" width="18.4952" height="1.68138" rx="0.840692" transform="rotate(-45 0.348389 13.4512)" fill="white"></rect>
    <rect x="1.18896" width="18.4952" height="1.68138" rx="0.840692" transform="rotate(45 1.18896 0)" fill="white"></rect>
  </symbol>
</svg>

