<svg width="0" height="0" class="hidden">
  <symbol fill="none" xmlns="http://www.w3.org/2000/svg" viewBox="0 0 24 24" id="svg_first">
    <path d="M13.1946 14.3572C13.004 14.0823 12.7788 13.8331 12.5246 13.6157C12.0368 15.4632 11.0397 16.9954 9.55462 18.1767C7.65802 19.6855 4.94958 20.6234 1.5 20.9667V22.5H11.7981C12.9995 20.6611 13.6919 18.9777 13.8563 17.4937C13.9919 16.2706 13.7693 15.2153 13.1946 14.3572Z" fill="#1D54A1"></path>
    <path d="M16.5007 15.75C16.5007 14.2219 16.1856 13.2065 15.5894 12.8134C15.0492 12.4571 14.4047 12.7169 14.3984 12.7196C14.3356 12.7466 14.2666 12.7559 14.1989 12.7465C14.1312 12.7371 14.0674 12.7093 14.0143 12.6663C13.9612 12.6232 13.9209 12.5665 13.8977 12.5021C13.8745 12.4378 13.8694 12.3684 13.8828 12.3014C13.8947 12.2387 14.1645 10.7194 12.6113 10.0982C11.036 9.46825 10.089 10.6748 10.0495 10.7264C9.99819 10.7935 9.92582 10.8415 9.84399 10.8626C9.76216 10.8837 9.67562 10.8767 9.59826 10.8427C9.58349 10.8361 8.06048 10.1762 6.98325 10.7037C6.48712 10.9465 6.16199 11.4003 5.98949 12.0909C5.80926 12.8118 5.88065 13.3866 6.20165 13.7994C6.62399 14.3424 7.39354 14.5283 7.86014 14.592C7.8685 14.3022 7.91683 14.0149 8.00376 13.7383C8.21057 13.0942 8.73379 12.2709 10.0522 12.0072C10.1905 11.9804 10.331 11.9672 10.4719 11.9679C11.5301 11.9679 12.9471 12.6387 13.8185 13.9398C14.4848 14.9348 14.756 16.1923 14.6024 17.5765C14.4662 18.8061 14.0032 20.1489 13.2224 21.5836C13.56 21.3141 13.8822 21.0259 14.1875 20.7204C15.7226 19.1796 16.5007 17.5074 16.5007 15.75Z" fill="#1D54A1"></path>
    <path d="M11.9375 5.43555C12.2816 6.47205 12.6468 7.85238 12.7989 9.36738C12.8287 9.37844 12.8587 9.38978 12.8889 9.40183C14.0045 9.84813 14.417 10.6547 14.5665 11.2528C14.6183 11.4624 14.6475 11.6769 14.6534 11.8927C15.1234 11.826 15.6017 11.9305 16.001 12.1872C16.8295 12.7335 17.2496 13.9323 17.2496 15.75C17.2496 17.6916 16.3687 19.5987 14.7023 21.2652C14.2533 21.7125 13.7713 22.1253 13.2602 22.5H20.0657C20.432 21.9958 21.7226 19.9735 22.259 15.89C20.0851 10.3871 17.4636 6.49356 11.9375 5.43555Z" fill="#1D54A1"></path>
    <path d="M17.2185 3.31458C15.8896 2.8335 14.7193 2.94867 14.1639 3.61505C14.124 3.66289 14.0728 3.70005 14.015 3.72317C13.9572 3.74628 13.8945 3.75463 13.8326 3.74745C13.7707 3.74027 13.7116 3.7178 13.6606 3.68205C13.6096 3.64631 13.5683 3.59842 13.5405 3.54272C13.4985 3.46017 12.4776 1.5 10.1258 1.5C7.78205 1.5 7.1055 3.12286 7.09899 3.13927C7.06531 3.22346 7.00227 3.2926 6.92153 3.33388C6.84079 3.37516 6.74783 3.38579 6.65986 3.3638C6.18295 3.26597 5.69089 3.26856 5.21503 3.37139C4.25878 3.59236 3.6361 4.25498 3.3646 5.34094C3.0931 6.42689 3.33061 7.30458 4.07049 7.94963C4.30868 8.15359 4.57418 8.3233 4.8593 8.45386C4.88461 7.44211 5.22066 6.60159 5.86186 5.9497C7.45294 4.332 10.3478 4.48955 10.5216 4.50056C10.8256 4.51455 11.1288 4.54387 11.4299 4.58841H11.4303C14.3722 5.02327 16.7272 6.20091 18.6299 8.18892C20.0521 9.67486 21.2462 11.5967 22.4191 14.3099C22.473 13.5638 22.5008 12.7917 22.5008 12C22.5008 9.7853 21.905 7.76386 20.7778 6.15427C19.8396 4.81434 18.5755 3.80587 17.2185 3.31458Z" fill="#1D54A1"></path>
  </symbol>


  <symbol fill="none" xmlns="http://www.w3.org/2000/svg" viewBox="0 0 12 12" id="svg_tag_sale">
    <g clip-path="url(#clip0_1_2562)">
      <path d="M2.47855 5.75014C3.05147 5.74969 3.60651 5.55061 4.04911 5.18682C4.49172 4.82304 4.7945 4.31705 4.90589 3.75506C5.01727 3.19308 4.93037 2.60985 4.65998 2.10475C4.38959 1.59965 3.95244 1.20392 3.423 0.984979C2.89357 0.766036 2.3046 0.737424 1.75644 0.904017C1.20827 1.07061 0.734824 1.4221 0.416746 1.89862C0.098669 2.37513 -0.0443593 2.94718 0.0120279 3.51732C0.0684151 4.08746 0.32073 4.62041 0.725987 5.02539C0.955995 5.25564 1.22922 5.4382 1.52998 5.56258C1.83073 5.68695 2.15309 5.75069 2.47855 5.75014ZM1.78663 2.58088C1.94671 2.42081 2.15733 2.3212 2.38262 2.29902C2.60791 2.27684 2.83392 2.33345 3.02214 2.45923C3.21037 2.585 3.34916 2.77215 3.41487 2.98878C3.48058 3.20541 3.46914 3.43812 3.38251 3.64727C3.29587 3.85641 3.1394 4.02905 2.93975 4.13576C2.7401 4.24247 2.50963 4.27666 2.2876 4.23249C2.06557 4.18832 1.86573 4.06854 1.72212 3.89355C1.5785 3.71855 1.50001 3.49918 1.50001 3.2728C1.49966 3.14425 1.52481 3.0169 1.574 2.89813C1.6232 2.77936 1.69547 2.67153 1.78663 2.58088ZM9.52149 6.24871C8.94806 6.2487 8.39237 6.44752 7.9491 6.81129C7.50582 7.17506 7.2024 7.68128 7.09052 8.24369C6.97864 8.8061 7.06523 9.38991 7.33554 9.89563C7.60585 10.4014 8.04315 10.7977 8.57292 11.0172C9.1027 11.2366 9.69218 11.2656 10.2409 11.0991C10.7897 10.9327 11.2637 10.5811 11.5823 10.1043C11.9009 9.62751 12.0443 9.055 11.9881 8.48433C11.9319 7.91366 11.6795 7.38014 11.2741 6.97466C11.0444 6.74378 10.7713 6.56074 10.4705 6.43613C10.1697 6.31152 9.84711 6.24781 9.52149 6.24871ZM10.2134 9.41914C10.0297 9.60151 9.78113 9.70364 9.52224 9.70315C9.26336 9.70267 9.01522 9.59961 8.83217 9.41655C8.64911 9.23349 8.54605 8.98536 8.54557 8.72647C8.54508 8.46759 8.6472 8.21907 8.82957 8.03532C8.92031 7.9439 9.02821 7.8713 9.14708 7.82167C9.26594 7.77204 9.39344 7.74637 9.52225 7.74613C9.65106 7.74589 9.77865 7.77109 9.8977 7.82027C10.0167 7.86946 10.1249 7.94166 10.216 8.03275C10.3071 8.12383 10.3793 8.232 10.4285 8.35105C10.4776 8.4701 10.5028 8.59769 10.5026 8.7265C10.5023 8.85531 10.4767 8.98281 10.427 9.10167C10.3774 9.22053 10.3048 9.32843 10.2134 9.41917L10.2134 9.41914ZM10.9861 1.01394C11.0557 1.08359 11.111 1.16626 11.1487 1.25726C11.1864 1.34825 11.2058 1.44578 11.2058 1.54427C11.2058 1.64277 11.1864 1.74029 11.1487 1.83129C11.111 1.92228 11.0557 2.00496 10.9861 2.07461L2.07463 10.9861C1.93379 11.1258 1.74331 11.2041 1.5449 11.2037C1.34648 11.2033 1.15631 11.1243 1.01601 10.984C0.875711 10.8437 0.796725 10.6536 0.796346 10.4551C0.795967 10.2567 0.874226 10.0663 1.01399 9.92542L9.92544 1.01394C10.0661 0.873295 10.2569 0.794281 10.4558 0.794281C10.6547 0.794281 10.8454 0.873295 10.9861 1.01394Z" fill="white"></path>
    </g>
    <defs>
      <clipPath id="clip0_1_2562">
        <rect width="12" height="12" fill="white"></rect>
      </clipPath>
    </defs>
  </symbol>
  <symbol fill="none" xmlns="http://www.w3.org/2000/svg" viewBox="0 0 12 12" id="svg_tag_fire">
    <path d="M9.26625 3.85876C9.22413 3.81659 9.17256 3.78507 9.11582 3.76681C9.05908 3.74855 8.99881 3.74408 8.94 3.75376C8.88163 3.76352 8.82639 3.78695 8.77882 3.82215C8.73124 3.85734 8.69266 3.9033 8.66625 3.95626C8.55155 4.15472 8.41164 4.33749 8.25 4.50001C8.21192 3.51414 7.8509 2.56811 7.2225 1.80751C6.87093 1.44652 6.4459 1.16529 5.9762 0.982837C5.50649 0.800388 5.00306 0.720988 4.5 0.750011C4.43216 0.750192 4.36564 0.768772 4.30753 0.803772C4.24941 0.838772 4.20188 0.888881 4.17 0.948761C4.13989 1.0074 4.12577 1.07294 4.12906 1.13878C4.13235 1.20461 4.15294 1.26842 4.18875 1.32376C4.24125 1.40251 5.38125 3.15751 4.08 4.73626C3.75 4.47751 3.375 4.06876 3.375 3.75001C3.3745 3.66604 3.34584 3.58467 3.29359 3.51893C3.24135 3.45318 3.16855 3.40688 3.08686 3.38743C3.00518 3.36798 2.91932 3.37651 2.84306 3.41166C2.7668 3.4468 2.70454 3.50652 2.66625 3.58126C2.15403 4.69298 1.8843 5.901 1.875 7.12501C1.875 10.3575 4.27875 11.1975 4.38 11.25C4.45268 11.2747 4.53118 11.2765 4.60491 11.2552C4.67864 11.2338 4.74405 11.1904 4.79229 11.1307C4.84054 11.071 4.86931 10.9979 4.87471 10.9213C4.88011 10.8448 4.86189 10.7684 4.8225 10.7025C4.46675 10.0637 4.32607 9.32744 4.42125 8.60251C4.65225 9.05048 4.99606 9.43048 5.41875 9.70501C5.49827 9.75774 5.5949 9.77817 5.68896 9.76214C5.78301 9.74612 5.86742 9.69484 5.925 9.61876C6.44356 8.86002 6.68946 7.94784 6.6225 7.03126C7.01625 7.63501 7.31625 8.76376 6.765 10.7813C6.75076 10.8364 6.74927 10.8941 6.76065 10.9499C6.77203 11.0058 6.79598 11.0583 6.83068 11.1034C6.86538 11.1486 6.90992 11.1853 6.96092 11.2107C7.01192 11.2361 7.06803 11.2495 7.125 11.25C7.15853 11.2555 7.19272 11.2555 7.22625 11.25C8.08651 10.962 8.83199 10.4062 9.35359 9.66393C9.87519 8.92169 10.1455 8.03197 10.125 7.12501C10.125 4.78876 9.3525 3.94876 9.26625 3.85876Z" fill="white"></path>
  </symbol>

  <symbol fill="none" xmlns="http://www.w3.org/2000/svg" viewBox="0 0 19 18" id="svg_cart">
    <path d="M2.75 1.5C2.33579 1.5 2 1.83579 2 2.25C2 2.66421 2.33579 3 2.75 3L2.75 1.5ZM4.625 2.25L5.35261 2.0681C5.26914 1.73422 4.96915 1.5 4.625 1.5L4.625 2.25ZM14.75 12.75C15.1642 12.75 15.5 12.4142 15.5 12C15.5 11.5858 15.1642 11.25 14.75 11.25V12.75ZM16.25 3.75L16.9776 3.9319C17.0336 3.70785 16.9833 3.47048 16.8412 3.28844C16.699 3.1064 16.481 3 16.25 3V3.75ZM14.75 9.75V10.5C15.0942 10.5 15.3941 10.2658 15.4776 9.9319L14.75 9.75ZM2.75 3L4.625 3L4.625 1.5L2.75 1.5L2.75 3ZM3.89739 2.4319L4.27239 3.9319L5.72761 3.5681L5.35261 2.0681L3.89739 2.4319ZM4.27239 3.9319L5.77239 9.9319L7.22761 9.5681L5.72761 3.5681L4.27239 3.9319ZM6.5 9H6.125V10.5H6.5V9ZM6.125 12.75H14.75V11.25H6.125V12.75ZM4.25 10.875C4.25 11.9105 5.08947 12.75 6.125 12.75V11.25C5.91789 11.25 5.75 11.0821 5.75 10.875H4.25ZM6.125 9C5.08947 9 4.25 9.83947 4.25 10.875H5.75C5.75 10.6679 5.91789 10.5 6.125 10.5V9ZM5 4.5H16.25V3H5V4.5ZM15.5224 3.5681L14.0224 9.5681L15.4776 9.9319L16.9776 3.9319L15.5224 3.5681ZM14.75 9H6.5V10.5H14.75V9ZM14 15V16.5C14.8284 16.5 15.5 15.8284 15.5 15H14ZM14 15H12.5C12.5 15.8284 13.1716 16.5 14 16.5V15ZM14 15V13.5C13.1716 13.5 12.5 14.1716 12.5 15H14ZM14 15H15.5C15.5 14.1716 14.8284 13.5 14 13.5V15ZM6.5 15V16.5C7.32843 16.5 8 15.8284 8 15H6.5ZM6.5 15H5C5 15.8284 5.67157 16.5 6.5 16.5V15ZM6.5 15V13.5C5.67157 13.5 5 14.1716 5 15H6.5ZM6.5 15H8C8 14.1716 7.32843 13.5 6.5 13.5V15Z" fill="white"></path>
  </symbol>

  <symbol fill="none" xmlns="http://www.w3.org/2000/svg" viewBox="0 0 10 14" id="svg_arrow_top">
    <path d="M1.67867 0.26299C1.4797 0.259301 1.28451 0.317544 1.1201 0.429662C0.955688 0.541779 0.83019 0.702226 0.760971 0.888801C0.691751 1.07537 0.682233 1.27885 0.733734 1.47107C0.785235 1.66329 0.895208 1.83475 1.04844 1.96173L6.91253 6.98189L1.04481 12.002C0.937615 12.0802 0.84778 12.1797 0.780977 12.2943C0.714174 12.4089 0.671853 12.5361 0.656685 12.6679C0.641518 12.7997 0.653833 12.9332 0.692853 13.06C0.731873 13.1868 0.796752 13.3041 0.883394 13.4046C0.970036 13.505 1.07656 13.5864 1.19624 13.6436C1.31593 13.7009 1.44617 13.7326 1.57876 13.737C1.71135 13.7413 1.84339 13.7182 1.96657 13.6689C2.08975 13.6197 2.20138 13.5454 2.29442 13.4509L9.00245 7.71716C9.10795 7.62705 9.19265 7.51515 9.25073 7.38915C9.30882 7.26315 9.33889 7.12606 9.33889 6.98732C9.33889 6.84858 9.30882 6.71149 9.25073 6.58549C9.19265 6.4595 9.10795 6.34759 9.00245 6.25748L2.29442 0.505667C2.12443 0.354332 1.9062 0.268323 1.67867 0.26299Z" fill="currentColor"></path>
  </symbol>
  <symbol fill="none" xmlns="http://www.w3.org/2000/svg" viewBox="0 0 26 26" id="svg_arrow">
    <rect width="26" height="26" rx="13" fill="#1d54a1"></rect>
    <path d="M10.9782 8.89927C10.8571 8.89702 10.7383 8.93248 10.6382 9.00072C10.5381 9.06897 10.4617 9.16663 10.4196 9.2802C10.3775 9.39377 10.3717 9.51762 10.403 9.63462C10.4344 9.75163 10.5013 9.856 10.5946 9.93329L14.164 12.989L10.5924 16.0448C10.5271 16.0923 10.4724 16.1529 10.4318 16.2227C10.3911 16.2924 10.3654 16.3699 10.3561 16.4501C10.3469 16.5303 10.3544 16.6116 10.3781 16.6888C10.4019 16.7659 10.4414 16.8373 10.4941 16.8985C10.5469 16.9596 10.6117 17.0092 10.6846 17.044C10.7574 17.0788 10.8367 17.0982 10.9174 17.1008C10.9981 17.1035 11.0785 17.0894 11.1534 17.0594C11.2284 17.0294 11.2964 16.9842 11.353 16.9267L15.4362 13.4366C15.5004 13.3817 15.5519 13.3136 15.5873 13.2369C15.6226 13.1602 15.6409 13.0768 15.6409 12.9923C15.6409 12.9079 15.6226 12.8244 15.5873 12.7478C15.5519 12.6711 15.5004 12.6029 15.4362 12.5481L11.353 9.04699C11.2495 8.95487 11.1167 8.90252 10.9782 8.89927Z" fill="#fff"></path>
  </symbol>
</svg>